<svg xmlns="http://www.w3.org/2000/svg" xmlns:xlink="http://www.w3.org/1999/xlink" viewBox="0 0 128 128">
  <defs>
    <pattern id="a" data-name="New Pattern Swatch 1" width="66.305" height="66.305" patternTransform="matrix(0.733, -0.6, 0.6, 0.733, 2218.39, 1190.373)" patternUnits="userSpaceOnUse" viewBox="0 0 66.305 66.305">
      <rect width="66.305" height="66.305" fill="none"/>
      <rect width="66.305" height="66.305" fill="#fcc821"/>
    </pattern>
  </defs>
  <title>mark_trans</title>
  <g>
    <path d="M63.925,128A64,64,0,0,1,58.588.233C60.408.078,62.253,0,64.071,0a64,64,0,0,1,5.338,127.767C67.588,127.922,65.743,128,63.925,128Z" fill="url(#a)"/>
    <path d="M127.614,55.549a.677.677,0,0,0-.748-.6c-.217-.008-.436.013-.652,0a4.227,4.227,0,0,1-3.825-2.541,4.175,4.175,0,0,1,.592-4.592,4.366,4.366,0,0,1,1.8-1.3c.72-.309.816-.521.6-1.285-.086-.3-.175-.606-.28-.9-.267-.755-.6-.909-1.363-.627a7.729,7.729,0,0,0-1.905,1.058c-.5.371-.707.362-1.218,0-.08-.058-.159-.118-.237-.177L104.364,32.335q-.47-.359-.928-.73a.73.73,0,0,1-.249-.9c.075-.2.132-.412.2-.619A6.22,6.22,0,0,0,103.523,27a6.463,6.463,0,0,0-3.287-4.47c-.685-.392-.726-.483-.588-1.223.538-2.878,1.068-5.757,1.622-8.632a1.04,1.04,0,0,0-.393-1.091,5.422,5.422,0,0,0-.68-.472c-.586-.348-.845-.243-1.037.4a2.3,2.3,0,0,0-.062.226c-.2,1.062-.4,2.124-.606,3.185-.382,1.987-.76,3.975-1.154,5.96-.144.722-.251.8-.956.9a6.518,6.518,0,0,0-4.617,2.779c-.62.867-.633.884-1.644.614l-.058-.013-24.9-6.732c-.721-.195-1.445-.385-2.162-.6a.758.758,0,0,1-.655-.851,1.529,1.529,0,0,0-.008-.3c-.172-.655.14-1.027.7-1.317q5.946-3.107,11.881-6.234,4.552-2.391,9.1-4.787a2.543,2.543,0,0,0,.452-.279c.317-.265.3-.549-.051-.751a4.535,4.535,0,0,0-.656-.263,20.247,20.247,0,0,0-2.28-.6c-.289-.082-.583-.147-.873-.225-.933-.274-1.87-.511-2.811-.722-.064-.015-.129-.027-.193-.041-1.4-.309-2.808-.57-4.227-.772-.2-.03-.407-.049-.61-.077C72.1.524,71.425.436,70.748.362,70.482.333,70.1.3,69.663.275c-1-.089-2-.14-3-.181-.141-.01-.254-.019-.31-.027-.409-.009-.816-.023-1.225-.029C64.773.032,64.424,0,64.071,0c-1.818,0-3.663.078-5.483.233A64,64,0,0,0,63.925,128c1.818,0,3.663-.078,5.484-.233.306-.026.6-.081.909-.111.123-.012.247-.012.37-.025,2.015-.206,4.015-.458,6-.858a63.748,63.748,0,0,0,18.443-6.726,45.865,45.865,0,0,0,8.037-5.447c.249-.194.513-.367.76-.565-.154.115-.317.214-.472.326a1.037,1.037,0,0,0,.371-.448.644.644,0,0,1-.064-.064c-.208.112-.42.216-.621.338-.758.461-1.518.918-2.266,1.4a1.607,1.607,0,0,1-1.36.168c-.134-.036-.266-.077-.4-.116L88.6,112.5c-.943-.281-1.883-.573-2.83-.841a.942.942,0,0,1-.786-.963,4.8,4.8,0,0,0-.107-.816.976.976,0,0,1,.525-1.186c.209-.109.4-.25.6-.377l12-7.579c1.65-1.042,3.3-2.089,4.95-3.127.646-.405.772-.391,1.369.064.079.06.156.121.235.18a6.3,6.3,0,0,0,3.815,1.221c.839.009.935.038,1.226.8.45,1.176.891,2.357,1.336,3.536.277.737.548,1.476.835,2.21.213.547.417.591.854.187.187-.173.338-.385.519-.566a1.427,1.427,0,0,0,.313-1.719c-.571-1.4-1.076-2.834-1.607-4.254-.38-1.012-.369-1.034.426-1.77a6,6,0,0,0,1.915-5.938c-.16-.8-.129-.918.569-1.358q2.252-1.421,4.511-2.826,2.457-1.537,4.914-3.074a2.2,2.2,0,0,0,.9-.751,6.725,6.725,0,0,0,.649-2.074c.07-.446-.194-.618-.62-.434a5.539,5.539,0,0,0-.72.4q-5.317,3.32-10.632,6.644c-1.016.636-1.014.575-1.859-.06a6.1,6.1,0,0,0-7.37-.016c-.127.093-.249.194-.378.283a.7.7,0,0,1-.83.031c-.3-.19-.6-.376-.9-.569q-2.8-1.824-5.6-3.649a1.323,1.323,0,0,1-.726-1.186c0-3.434-.054-6.867-.065-10.3-.024-7.974.023-15.949-.037-23.923a4.822,4.822,0,0,0-4.217-4.65c-1.934-.2-3.866-.423-5.8-.584-2.019-.167-4.042-.269-6.063-.4-.55-.037-1.1-.067-1.646-.141-.321-.044-.384-.279-.145-.494a6.271,6.271,0,0,1,.715-.523q6.29-4.213,12.581-8.428c1.153-.775,1.11-.484,1.852.03a6.416,6.416,0,0,0,7.022.456,8.662,8.662,0,0,0,.85-.536.669.669,0,0,1,.822.007c.113.079.229.154.338.238q8.359,6.393,16.718,12.787c.746.572.756.626.432,1.528-.014.037-.026.074-.039.112a7.312,7.312,0,0,0,2.481,8.35,7.209,7.209,0,0,0,5.165,1.45.692.692,0,0,0,.717-.765A6.784,6.784,0,0,0,127.614,55.549ZM108.236,89.314a3.6,3.6,0,0,1-.031,7.2,3.6,3.6,0,1,1,.031-7.2ZM80.791,3.362a4.51,4.51,0,0,1-.542.355q-6.981,3.674-13.965,7.34l-3.818,2.006c-.07.037-.138.076-.208.112-.753.4-.885.374-1.442-.293a6.435,6.435,0,0,0-.832-.835,6.617,6.617,0,0,0-4.354-1.554c-.846,0-.931-.055-1.2-.827Q53.8,7.854,53.175,6.039c-.02-.055-.035-.113-.051-.17-.16-.55-.071-.751.476-.936,1.231-.416,2.491-.734,3.754-1.029A59.268,59.268,0,0,1,64.431,2.67c1.6-.175,3.208-.288,4.819-.37,1.263-.064,2.525-.085,3.784-.046a54.991,54.991,0,0,1,5.7.406c.565.076,1.135.111,1.7.176a.567.567,0,0,1,.488.267A.334.334,0,0,1,80.791,3.362ZM49.418,18.834c.044.151.095.3.126.454a.756.756,0,0,1-.317.828c-.145.1-.286.211-.432.311L27.1,35.209a2.137,2.137,0,0,1-.738.4,1.41,1.41,0,0,1-.812-.264,4.912,4.912,0,0,0-1.9-.585,4.453,4.453,0,0,0-4.534,2.805.322.322,0,0,0-.023.055,1.4,1.4,0,0,1-1.506,1.265c-.585.023-1.164.168-1.747.242-.417.054-.617-.159-.485-.553a10.446,10.446,0,0,1,.521-1.189A61.936,61.936,0,0,1,25.008,23.5a60.818,60.818,0,0,1,4.511-4.684A62.44,62.44,0,0,1,41.836,9.9a61.6,61.6,0,0,1,7.7-3.579c1.049-.4,1.17-.344,1.537.716.392,1.135.785,2.269,1.169,3.406.255.754.221.863-.409,1.352a6.509,6.509,0,0,0-2.551,4.119A6.428,6.428,0,0,0,49.418,18.834ZM25.862,39.217a2.579,2.579,0,0,1-5.158-.01,2.579,2.579,0,0,1,5.158.01Zm4.315,60.72a.961.961,0,0,1-.314.794q-2.032,2.026-4.065,4.054a2.106,2.106,0,0,1-.273.225c-.314.224-.515.228-.784-.039-.307-.3-.594-.631-.875-.96a56.737,56.737,0,0,1-10.539-18.6c-.179-.52-.345-1.045-.506-1.571a2.912,2.912,0,0,1-.118-.577c-.025-.265.124-.368.359-.237a3.723,3.723,0,0,1,.57.418q3.09,2.611,6.175,5.227,4.842,4.1,9.683,8.211c.12.1.224.223.344.324a.97.97,0,0,1,.339.9c-.027.294-.037.589-.051.813C30.142,99.308,30.15,99.623,30.177,99.937Zm25.7,22.763A59.074,59.074,0,0,1,29.91,110.05c-.886-.754-1.756-1.525-2.571-2.356-.484-.493-.491-.689,0-1.181q1.835-1.848,3.684-3.682c.532-.528.715-.556,1.412-.233a4.037,4.037,0,0,0,4.716-.879,1.306,1.306,0,0,1,1.473-.4q10.855,2.907,21.722,5.777l12.716,3.377c.075.02.151.042.227.059.515.112.859.367.864.952a5.409,5.409,0,0,0,.1.7c.066.453-.2.7-.546.9q-1.839,1.071-3.675,2.145-6.149,3.588-12.294,7.184A2.388,2.388,0,0,1,55.878,122.7ZM31.909,98.832a2.263,2.263,0,0,1,2.322-2.24,2.319,2.319,0,1,1-2.322,2.24Zm6.044-3.25a1.468,1.468,0,0,1-1.543-.094,3.865,3.865,0,0,0-4.095-.189,1.185,1.185,0,0,1-1.483-.284q-3.866-3.3-7.746-6.576c-3.6-3.059-7.2-6.128-10.813-9.173A3.008,3.008,0,0,1,11.164,77.4c-.384-2.108-.712-4.22-.937-6.351a66.246,66.246,0,0,1-.34-8.554,60.853,60.853,0,0,1,2.7-16.654c.338-1.091.713-2.169,1.089-3.247a1.3,1.3,0,0,1,1.178-.98c1.169-.139,2.33-.343,3.494-.524a1.115,1.115,0,0,1,1.188.566,4.382,4.382,0,0,0,4.317,2,3.263,3.263,0,0,0,1.348-.4,1.209,1.209,0,0,1,1.546.171c2.391,1.93,4.805,3.832,7.21,5.744,1.141.907,2.268,1.834,3.431,2.712a1.757,1.757,0,0,1,.731,1.57c-.024,3.276-.008,6.552-.007,9.829q0,2.634,0,5.267h.074q0,7.489,0,14.981a4.839,4.839,0,0,0,2.264,4.234,4.066,4.066,0,0,0,1.874.663q1.932.207,3.868.391c1.624.153,3.247.292,4.871.439.19.018.454-.007.5.213.049.235-.22.305-.388.379q-2.05.909-4.113,1.8C44.026,92.957,40.982,94.254,37.953,95.582Zm9.471-52.537a.871.871,0,0,1-.818.651c-1.308.136-2.611.33-3.921.423a4.879,4.879,0,0,0-4.576,4.4c-.01.078,0,.159-.017.236-.079.372-.254.451-.59.25a5.028,5.028,0,0,1-.527-.38q-4.371-3.476-8.74-6.955c-.138-.11-.27-.229-.4-.346a.753.753,0,0,1-.246-.8,4.907,4.907,0,0,0,.1-2.218.957.957,0,0,1,.507-1.035q3.524-2.39,7.038-4.8L49.937,22.441c.2-.133.389-.27.592-.39a.7.7,0,0,1,.44-.149.831.831,0,0,1,.538.211c.272.2.546.387.817.583.461.334.538.512.393,1.056-.338,1.274-.686,2.545-1.035,3.816q-2.053,7.484-4.111,14.966C47.524,42.705,47.477,42.876,47.424,43.045Zm4.46-25.966a3.779,3.779,0,0,1,3.868-3.863,3.867,3.867,0,1,1,0,7.733A3.8,3.8,0,0,1,51.884,17.079Zm33.381,96.826c3.594,1.093,7.2,2.155,10.8,3.228a2.454,2.454,0,0,1,.39.133c.152.076.368.1.389.318.024.245-.192.322-.354.424a4.488,4.488,0,0,1-.417.222A63.38,63.38,0,0,1,89.553,121a71.1,71.1,0,0,1-7.615,2.323,26.753,26.753,0,0,1-3.608.553c-1.623.16-3.248.271-4.876.375-.944.06-1.886.1-3.055.1a74.863,74.863,0,0,1-8.654-.64c-.257-.034-.643,0-.713-.3s.3-.426.523-.559q4.23-2.48,8.468-4.945c1.565-.913,3.143-1.8,4.69-2.746a1.125,1.125,0,0,1,1.486.088,5.392,5.392,0,0,0,7.637-.917A1.146,1.146,0,0,1,85.265,113.905Zm-4.29-9.409c.143-1.372.056-2.754.2-4.128.048-.469.031-.945.045-1.417.04-1.26.073-2.52.124-3.779q.1-2.537.235-5.073c.032-.64.175-.785.808-.843,1.348-.123,2.7-.224,4.048-.358,1.854-.185,3.71-.368,5.559-.6a4.475,4.475,0,0,0,2.965-1.661c.429-.518.638-.56,1.206-.192,1.9,1.232,3.793,2.479,5.692,3.715a.9.9,0,0,1,.44,1.144,5.769,5.769,0,0,0-.043,3.085c.17.68.078.866-.553,1.267Q98.905,97.434,96.1,99.2L84.31,106.639c-.116.073-.238.139-.354.213a.757.757,0,0,1-.928-.045,7.058,7.058,0,0,0-1.529-.885.778.778,0,0,1-.526-.834C80.985,104.891,80.975,104.694,80.975,104.5Zm1.745,6.48a3.163,3.163,0,0,1-3.122,3.19,3.159,3.159,0,0,1-.063-6.317A3.169,3.169,0,0,1,82.72,110.976ZM78.077,89.5l.178-.008c1.042-.047.981.251.954.911-.014.355,0,.71,0,1.066h-.025c-.044,1.358-.082,2.717-.136,4.075-.063,1.613-.144,3.226-.211,4.838-.053,1.28-.095,2.559-.141,3.839,0,.1,0,.2,0,.3a1.3,1.3,0,0,1-1.021,1.423,4.561,4.561,0,0,0-2.5,1.891,1.082,1.082,0,0,1-1.37.448q-10.2-2.721-20.415-5.421-7.041-1.869-14.082-3.745a4.377,4.377,0,0,1-.509-.149.676.676,0,0,1-.48-.55A.613.613,0,0,1,38.7,97.8a6.552,6.552,0,0,1,.639-.3l11.6-5c1.844-.794,3.7-1.56,5.524-2.4a4.893,4.893,0,0,1,2.641-.435c.906.1,1.813.061,2.717.094,1.6.058,3.2.075,4.793.067q3.46-.018,6.922-.1C75.051,89.682,76.564,89.577,78.077,89.5ZM90.636,31.2q-.189.141-.386.273-8.032,5.377-16.062,10.761a2.779,2.779,0,0,1-1.771.517c-1.813-.1-3.629-.021-5.444,0-1.874,0-3.749-.028-5.622.009-1.594.031-3.187.129-4.779.211-1.473.076-2.945.166-4.418.256-.49.029-.978.094-1.469.112-.758.029-.89-.137-.7-.857.212-.8.439-1.593.657-2.389q2.126-7.737,4.249-15.474c.031-.113.074-.224.1-.338a.736.736,0,0,1,.762-.609,7.546,7.546,0,0,0,1.461-.175,6.525,6.525,0,0,0,3.856-2.552c.128-.175.245-.358.371-.535a.75.75,0,0,1,.911-.334c1.362.384,2.735.731,4.1,1.1Q78.048,24.3,89.634,27.438a4.652,4.652,0,0,1,.507.158.64.64,0,0,1,.436.578,10.77,10.77,0,0,0,.359,2.206A.7.7,0,0,1,90.636,31.2Zm6.489.89a3.833,3.833,0,1,1,3.843-3.762A3.84,3.84,0,0,1,97.125,32.09Z" fill="#fde38e"/>
    <g>
      <path d="M38.672,46.434a4.9,4.9,0,0,1,.493-.678,5.126,5.126,0,0,1,.587-.575,4.554,4.554,0,0,1,.427-.3c.075-.05.146-.109.223-.154.128-.073.261-.125.392-.184.107-.048.212-.1.321-.143s.206-.053.31-.08a3.754,3.754,0,0,1,.484-.11A216.705,216.705,0,0,1,66.935,42.7c4.109-.009,8.24.1,12.364.33.908.05,1.819.125,2.729.187,1.213.082,2.427.153,3.637.255,1.078.092,2.147.212,3.221.319,1.027.1,2.058.19,3.081.307a4.362,4.362,0,0,1,2.75,1.529,4.561,4.561,0,0,1,1.165,2.956l.03,12.942,0,1.469.005,2.241v.605l0,1.3h0l.006,2.209,0,1.469.03,12.943a4.4,4.4,0,0,1-.655,2.28,4.952,4.952,0,0,1-1.081,1.253,4.6,4.6,0,0,1-.423.3c-.076.051-.148.111-.227.157-.127.073-.261.125-.392.184-.107.048-.211.1-.32.142s-.207.054-.31.081a3.9,3.9,0,0,1-.485.11,216.451,216.451,0,0,1-25.025,1.514c-4.109.01-8.24-.1-12.364-.329-.909-.05-1.821-.125-2.732-.187-1.212-.082-2.425-.154-3.634-.256-1.078-.091-2.148-.211-3.222-.319-1.027-.1-2.058-.189-3.081-.307a4.359,4.359,0,0,1-2.749-1.528A4.553,4.553,0,0,1,38.1,83.892L38.068,70.95l0-1.47,0-2.241v-.6l0-1.3h0l-.005-2.209,0-1.47-.031-12.942A4.394,4.394,0,0,1,38.672,46.434Z"/>
      <path d="M45.731,54.558a275.635,275.635,0,0,1,42.465-.1,1.51,1.51,0,0,1-.226,3.012,272.741,272.741,0,0,0-42,.1,1.164,1.164,0,0,1-.118.005,1.51,1.51,0,0,1-.122-3.015Z" fill="#fff"/>
      <path d="M45.873,65.651l42.233-.1a1.51,1.51,0,0,1,.007,3.02l-42.233.1a1.51,1.51,0,0,1-.007-3.02Z" fill="#fff"/>
      <path d="M46.016,76.754a272.615,272.615,0,0,0,42-.1,1.51,1.51,0,0,1,.24,3.01c-7.043.563-14.137.853-21.23.87s-14.19-.24-21.235-.77a1.51,1.51,0,1,1,.226-3.011Z" fill="#fff"/>
    </g>
  </g>
</svg>
